<?xml version="1.0" encoding="UTF-8" standalone="no"?>
<svg
   xmlns:dc="http://purl.org/dc/elements/1.1/"
   xmlns:cc="http://creativecommons.org/ns#"
   xmlns:rdf="http://www.w3.org/1999/02/22-rdf-syntax-ns#"
   xmlns:svg="http://www.w3.org/2000/svg"
   xmlns="http://www.w3.org/2000/svg"
   viewBox="0 0 1333.3333 666.66669"
   height="666.66669"
   width="1333.3333"
   xml:space="preserve"
   id="svg2"
   version="1.1"><metadata
     id="metadata8"><rdf:RDF><cc:Work
         rdf:about=""><dc:format>image/svg+xml</dc:format><dc:type
           rdf:resource="http://purl.org/dc/dcmitype/StillImage" /></cc:Work></rdf:RDF></metadata><defs
     id="defs6"><clipPath
       id="clipPath156"
       clipPathUnits="userSpaceOnUse"><path
         id="path154"
         d="M 0,500 H 1000 V 0 H 0 Z" /></clipPath></defs><g
     transform="matrix(1.3333333,0,0,-1.3333333,0,666.66667)"
     id="g10"><g
       transform="translate(394.7568,355.623)"
       id="g12"><path
         id="path14"
         style="fill:#ffffff;fill-opacity:1;fill-rule:nonzero;stroke:none"
         d="m 0,0 h -110.116 v 18.151 h -98.015 v -181.51 h -31.462 v -45.983 h 6.05 v -26.621 H 0 Z" /></g><g
       transform="translate(394.7568,355.623)"
       id="g16"><path
         id="path18"
         style="fill:none;stroke:#373535;stroke-width:3;stroke-linecap:butt;stroke-linejoin:miter;stroke-miterlimit:10;stroke-dasharray:none;stroke-opacity:1"
         d="m 0,0 h -110.116 v 18.151 h -98.015 v -181.51 h -31.462 v -45.983 h 6.05 v -26.621 H 0 Z" /></g><g
       transform="translate(284.6406,355.623)"
       id="g20"><path
         id="path22"
         style="fill:#ffffff;fill-opacity:1;fill-rule:nonzero;stroke:#373535;stroke-width:3;stroke-linecap:butt;stroke-linejoin:miter;stroke-miterlimit:10;stroke-dasharray:none;stroke-opacity:1"
         d="m 0,0 h -38.723 v -157.309 -7.259 l -59.292,1.209" /></g><path
       id="path24"
       style="fill:#565454;fill-opacity:1;fill-rule:nonzero;stroke:#373535;stroke-width:4;stroke-linecap:butt;stroke-linejoin:miter;stroke-miterlimit:10;stroke-dasharray:none;stroke-opacity:1"
       d="M 370.555,141.441 H 274.96 v 185.141 h 95.595 z" /><path
       id="path26"
       style="fill:#90d3ee;fill-opacity:1;fill-rule:nonzero;stroke:#373535;stroke-width:4;stroke-linecap:butt;stroke-linejoin:miter;stroke-miterlimit:10;stroke-dasharray:none;stroke-opacity:1"
       d="m 370.555,141.441 h -85.914 v 179.09 h 85.914 z" /><g
       transform="translate(341.5131,141.4413)"
       id="g28"><path
         id="path30"
         style="fill:#ffffff;fill-opacity:1;fill-rule:nonzero;stroke:none"
         d="M 0,0 V 179.09 Z" /></g><g
       transform="translate(341.5127,320.5312)"
       id="g32"><path
         id="path34"
         style="fill:none;stroke:#373535;stroke-width:2;stroke-linecap:butt;stroke-linejoin:miter;stroke-miterlimit:10;stroke-dasharray:none;stroke-opacity:1"
         d="M 0,0 V -179.09" /></g><g
       transform="translate(305.2107,141.4413)"
       id="g36"><path
         id="path38"
         style="fill:#ffffff;fill-opacity:1;fill-rule:nonzero;stroke:none"
         d="M 0,0 V 179.09 Z" /></g><g
       transform="translate(305.2109,141.4414)"
       id="g40"><path
         id="path42"
         style="fill:none;stroke:#373535;stroke-width:3;stroke-linecap:butt;stroke-linejoin:miter;stroke-miterlimit:10;stroke-dasharray:none;stroke-opacity:1"
         d="M 0,0 V 179.09" /></g><g
       transform="translate(274.9599,217.6758)"
       id="g44"><path
         id="path46"
         style="fill:#ffffff;fill-opacity:1;fill-rule:nonzero;stroke:none"
         d="M 0,0 H 95.594 Z" /></g><g
       transform="translate(274.96,217.6758)"
       id="g48"><path
         id="path50"
         style="fill:none;stroke:#373535;stroke-width:2;stroke-linecap:butt;stroke-linejoin:miter;stroke-miterlimit:10;stroke-dasharray:none;stroke-opacity:1"
         d="M 0,0 H 95.595" /></g><g
       transform="translate(284.6403,177.7428)"
       id="g52"><path
         id="path54"
         style="fill:#ffffff;fill-opacity:1;fill-rule:nonzero;stroke:none"
         d="M 0,0 H 56.873 Z" /></g><g
       transform="translate(284.6406,177.7432)"
       id="g56"><path
         id="path58"
         style="fill:none;stroke:#373535;stroke-width:1;stroke-linecap:butt;stroke-linejoin:miter;stroke-miterlimit:10;stroke-dasharray:none;stroke-opacity:1"
         d="M 0,0 H 56.872" /></g><g
       transform="translate(305.2107,280.5993)"
       id="g60"><path
         id="path62"
         style="fill:#ffffff;fill-opacity:1;fill-rule:nonzero;stroke:none"
         d="M 0,0 H 65.344 Z" /></g><g
       transform="translate(305.2109,280.5996)"
       id="g64"><path
         id="path66"
         style="fill:none;stroke:#373535;stroke-width:2;stroke-linecap:butt;stroke-linejoin:miter;stroke-miterlimit:10;stroke-dasharray:none;stroke-opacity:1"
         d="M 0,0 H 65.344" /></g><path
       id="path68"
       style="fill:#8fd3ec;fill-opacity:1;fill-rule:nonzero;stroke:#373535;stroke-width:2;stroke-linecap:butt;stroke-linejoin:miter;stroke-miterlimit:10;stroke-dasharray:none;stroke-opacity:1"
       d="m 216.876,193.055 h -16.941 v 164.568 h 16.941 z" /><g
       transform="translate(199.935,280.5993)"
       id="g70"><path
         id="path72"
         style="fill:#8fd3ec;fill-opacity:1;fill-rule:nonzero;stroke:none"
         d="M 0,0 H 16.941 Z" /></g><g
       transform="translate(199.9351,280.5996)"
       id="g74"><path
         id="path76"
         style="fill:none;stroke:#373535;stroke-width:2;stroke-linecap:butt;stroke-linejoin:miter;stroke-miterlimit:10;stroke-dasharray:none;stroke-opacity:1"
         d="M 0,0 H 16.941" /></g><g
       transform="translate(199.935,234.6165)"
       id="g78"><path
         id="path80"
         style="fill:#8fd3ec;fill-opacity:1;fill-rule:nonzero;stroke:none"
         d="M 0,0 H 16.941 Z" /></g><g
       transform="translate(199.9351,234.6162)"
       id="g82"><path
         id="path84"
         style="fill:none;stroke:#373535;stroke-width:2;stroke-linecap:butt;stroke-linejoin:miter;stroke-miterlimit:10;stroke-dasharray:none;stroke-opacity:1"
         d="M 0,0 H 16.941" /></g><path
       id="path86"
       style="fill:#4d4c4e;fill-opacity:1;fill-rule:nonzero;stroke:#373535;stroke-width:2;stroke-linecap:butt;stroke-linejoin:miter;stroke-miterlimit:10;stroke-dasharray:none;stroke-opacity:1"
       d="m 251.968,119.66 h -65.342 v 50.823 h 65.342 z" /><path
       id="path88"
       style="fill:#8fd3ec;fill-opacity:1;fill-rule:nonzero;stroke:#373535;stroke-width:2;stroke-linecap:butt;stroke-linejoin:miter;stroke-miterlimit:10;stroke-dasharray:none;stroke-opacity:1"
       d="m 251.968,119.66 h -59.293 v 44.772 h 59.293 z" /><g
       transform="translate(222.3216,119.6604)"
       id="g90"><path
         id="path92"
         style="fill:#8fd3ec;fill-opacity:1;fill-rule:nonzero;stroke:none"
         d="M 0,0 V 44.772 Z" /></g><g
       transform="translate(222.3213,164.4326)"
       id="g94"><path
         id="path96"
         style="fill:none;stroke:#373535;stroke-width:2;stroke-linecap:butt;stroke-linejoin:miter;stroke-miterlimit:10;stroke-dasharray:none;stroke-opacity:1"
         d="M 0,0 V -44.772" /></g><path
       id="path98"
       style="fill:#ffffff;fill-opacity:1;fill-rule:nonzero;stroke:#373535;stroke-width:2;stroke-linecap:butt;stroke-linejoin:miter;stroke-miterlimit:10;stroke-dasharray:none;stroke-opacity:1"
       d="M 725.104,120.773 H 582.095 v 260.262 h 143.009 z" /><path
       id="path100"
       style="fill:#565454;fill-opacity:1;fill-rule:nonzero;stroke:#373535;stroke-width:2;stroke-linecap:butt;stroke-linejoin:miter;stroke-miterlimit:10;stroke-dasharray:none;stroke-opacity:1"
       d="m 674.281,120.773 h -68.369 v 243.321 h 68.369 z" /><path
       id="path102"
       style="fill:#8fd3ec;fill-opacity:1;fill-rule:nonzero;stroke:#373535;stroke-width:2;stroke-linecap:butt;stroke-linejoin:miter;stroke-miterlimit:10;stroke-dasharray:none;stroke-opacity:1"
       d="m 674.281,120.773 h -58.083 v 234.85 h 58.083 z" /><g
       transform="translate(639.2421,120.7737)"
       id="g104"><path
         id="path106"
         style="fill:#ffffff;fill-opacity:1;fill-rule:nonzero;stroke:none"
         d="M 0,0 V 236.849 Z" /></g><g
       transform="translate(639.2422,357.623)"
       id="g108"><path
         id="path110"
         style="fill:none;stroke:#373535;stroke-width:2;stroke-linecap:butt;stroke-linejoin:miter;stroke-miterlimit:10;stroke-dasharray:none;stroke-opacity:1"
         d="M 0,0 V -236.85" /></g><g
       transform="translate(616.1985,291.4902)"
       id="g112"><path
         id="path114"
         style="fill:#ffffff;fill-opacity:1;fill-rule:nonzero;stroke:none"
         d="M 0,0 H 23.044 Z" /></g><g
       transform="translate(616.1982,291.4902)"
       id="g116"><path
         id="path118"
         style="fill:none;stroke:#373535;stroke-width:2;stroke-linecap:butt;stroke-linejoin:miter;stroke-miterlimit:10;stroke-dasharray:none;stroke-opacity:1"
         d="M 0,0 H 23.044" /></g><g
       transform="translate(640.0971,234.6165)"
       id="g120"><path
         id="path122"
         style="fill:#ffffff;fill-opacity:1;fill-rule:nonzero;stroke:none"
         d="M 0,0 H 34.184 Z" /></g><g
       transform="translate(640.0967,234.6162)"
       id="g124"><path
         id="path126"
         style="fill:none;stroke:#373535;stroke-width:2;stroke-linecap:butt;stroke-linejoin:miter;stroke-miterlimit:10;stroke-dasharray:none;stroke-opacity:1"
         d="M 0,0 H 34.185" /></g><g
       transform="translate(616.1985,164.4327)"
       id="g128"><path
         id="path130"
         style="fill:#ffffff;fill-opacity:1;fill-rule:nonzero;stroke:none"
         d="M 0,0 H 23.044 Z" /></g><g
       transform="translate(616.1982,164.4326)"
       id="g132"><path
         id="path134"
         style="fill:none;stroke:#373535;stroke-width:2;stroke-linecap:butt;stroke-linejoin:miter;stroke-miterlimit:10;stroke-dasharray:none;stroke-opacity:1"
         d="M 0,0 H 23.044" /></g><path
       id="path136"
       style="fill:#56c2e6;fill-opacity:1;fill-rule:nonzero;stroke:#373535;stroke-width:2;stroke-linecap:butt;stroke-linejoin:miter;stroke-miterlimit:10;stroke-dasharray:none;stroke-opacity:1"
       d="m 709.373,120.773 h -7.26 v 236.85 h 7.26 z" /><g
       transform="translate(576.7988,267.4834)"
       id="g138"><path
         id="path140"
         style="fill:#ffffff;fill-opacity:1;fill-rule:nonzero;stroke:none"
         d="m 0,0 -85.455,-64.32 5.513,-6.433 15.622,10.107 1.837,-88.211 H 67.996 v 84.537 l 10.108,-6.433 8.269,6.433 z" /></g><g
       transform="translate(576.7988,267.4834)"
       id="g142"><path
         id="path144"
         style="fill:none;stroke:#373535;stroke-width:2;stroke-linecap:butt;stroke-linejoin:miter;stroke-miterlimit:10;stroke-dasharray:none;stroke-opacity:1"
         d="m 0,0 -85.455,-64.32 5.513,-6.433 15.622,10.107 1.837,-88.211 H 67.996 v 84.537 l 10.108,-6.433 8.269,6.433 z" /></g><g
       transform="translate(512.4785,206.8379)"
       id="g146"><path
         id="path148"
         style="fill:#ffffff;fill-opacity:1;fill-rule:nonzero;stroke:#373535;stroke-width:2;stroke-linecap:butt;stroke-linejoin:miter;stroke-miterlimit:10;stroke-dasharray:none;stroke-opacity:1"
         d="M 0,0 64.779,48.701 132.316,-3.675" /></g><g
       id="g150"><g
         clip-path="url(#clipPath156)"
         id="g152"><g
           transform="translate(591.041,224.2969)"
           id="g158"><path
             id="path160"
             style="fill:#5c6263;fill-opacity:1;fill-rule:nonzero;stroke:none"
             d="m 0,0 c 0,-7.611 -6.17,-13.783 -13.783,-13.783 -7.612,0 -13.783,6.172 -13.783,13.783 0,7.612 6.171,13.783 13.783,13.783 C -6.17,13.783 0,7.612 0,0" /></g><g
           transform="translate(591.041,224.2969)"
           id="g162"><path
             id="path164"
             style="fill:none;stroke:#373535;stroke-width:2;stroke-linecap:butt;stroke-linejoin:miter;stroke-miterlimit:10;stroke-dasharray:none;stroke-opacity:1"
             d="m 0,0 c 0,-7.611 -6.17,-13.783 -13.783,-13.783 -7.612,0 -13.783,6.172 -13.783,13.783 0,7.612 6.171,13.783 13.783,13.783 C -6.17,13.783 0,7.612 0,0 Z" /></g><g
           transform="translate(591.6094,223.6064)"
           id="g166"><path
             id="path168"
             style="fill:#8fd3ec;fill-opacity:1;fill-rule:nonzero;stroke:none"
             d="m 0,0 c 0,-6.471 -5.451,-11.716 -12.176,-11.716 -6.722,0 -12.174,5.245 -12.174,11.716 0,6.471 5.452,11.716 12.174,11.716 C -5.451,11.716 0,6.471 0,0" /></g><g
           transform="translate(591.6094,223.6064)"
           id="g170"><path
             id="path172"
             style="fill:none;stroke:#373535;stroke-width:2;stroke-linecap:butt;stroke-linejoin:miter;stroke-miterlimit:10;stroke-dasharray:none;stroke-opacity:1"
             d="m 0,0 c 0,-6.471 -5.451,-11.716 -12.176,-11.716 -6.722,0 -12.174,5.245 -12.174,11.716 0,6.471 5.452,11.716 12.174,11.716 C -5.451,11.716 0,6.471 0,0 Z" /></g><path
           id="path174"
           style="fill:#565454;fill-opacity:1;fill-rule:nonzero;stroke:#373535;stroke-width:2;stroke-linecap:butt;stroke-linejoin:miter;stroke-miterlimit:10;stroke-dasharray:none;stroke-opacity:1"
           d="m 596.096,118.626 h -65.24 v 67.997 h 65.24 z" /><path
           id="path176"
           style="fill:#90d2ea;fill-opacity:1;fill-rule:nonzero;stroke:#373535;stroke-width:2;stroke-linecap:butt;stroke-linejoin:miter;stroke-miterlimit:10;stroke-dasharray:none;stroke-opacity:1"
           d="M 596.096,118.626 H 535.45 v 63.402 h 60.646 z" /><g
           transform="translate(565.7715,182.0283)"
           id="g178"><path
             id="path180"
             style="fill:#90d2ea;fill-opacity:1;fill-rule:nonzero;stroke:#373535;stroke-width:2;stroke-linecap:butt;stroke-linejoin:miter;stroke-miterlimit:10;stroke-dasharray:none;stroke-opacity:1"
             d="M 0,0 V -63.402" /></g><g
           transform="translate(845.8086,210.5127)"
           id="g182"><path
             id="path184"
             style="fill:#78c586;fill-opacity:1;fill-rule:nonzero;stroke:none"
             d="m 0,0 c 0,-23.424 -19.504,-42.412 -43.563,-42.412 -24.058,0 -43.562,18.988 -43.562,42.412 0,23.424 19.504,42.413 43.562,42.413 C -19.504,42.413 0,23.424 0,0" /></g><g
           transform="translate(845.8086,210.5127)"
           id="g186"><path
             id="path188"
             style="fill:none;stroke:#373535;stroke-width:2;stroke-linecap:butt;stroke-linejoin:miter;stroke-miterlimit:10;stroke-dasharray:none;stroke-opacity:1"
             d="m 0,0 c 0,-23.424 -19.504,-42.412 -43.563,-42.412 -24.058,0 -43.562,18.988 -43.562,42.412 0,23.424 19.504,42.413 43.562,42.413 C -19.504,42.413 0,23.424 0,0 Z" /></g><g
           transform="translate(802.2461,118.626)"
           id="g190"><path
             id="path192"
             style="fill:#736248;fill-opacity:1;fill-rule:nonzero;stroke:#373535;stroke-width:5;stroke-linecap:butt;stroke-linejoin:miter;stroke-miterlimit:10;stroke-dasharray:none;stroke-opacity:1"
             d="m 0,0 v 67.996 6.434 5.259 25.982" /></g><g
           transform="translate(821.9102,198.3154)"
           id="g194"><path
             id="path196"
             style="fill:#736248;fill-opacity:1;fill-rule:nonzero;stroke:#373535;stroke-width:3;stroke-linecap:butt;stroke-linejoin:miter;stroke-miterlimit:10;stroke-dasharray:none;stroke-opacity:1"
             d="M 0,0 -19.664,-11.693" /></g><g
           transform="translate(778.3477,211.8906)"
           id="g198"><path
             id="path200"
             style="fill:#736248;fill-opacity:1;fill-rule:nonzero;stroke:#373535;stroke-width:3;stroke-linecap:butt;stroke-linejoin:miter;stroke-miterlimit:10;stroke-dasharray:none;stroke-opacity:1"
             d="M 0,0 23.898,-34.147" /></g><g
           transform="translate(483.4336,189.6484)"
           id="g202"><path
             id="path204"
             style="fill:#78c586;fill-opacity:1;fill-rule:nonzero;stroke:none"
             d="m 0,0 c 0,-18.147 -15.11,-32.859 -33.75,-32.859 -18.639,0 -33.75,14.712 -33.75,32.859 0,18.147 15.111,32.859 33.75,32.859 C -15.11,32.859 0,18.147 0,0" /></g><g
           transform="translate(483.4336,189.6484)"
           id="g206"><path
             id="path208"
             style="fill:none;stroke:#373535;stroke-width:2;stroke-linecap:butt;stroke-linejoin:miter;stroke-miterlimit:10;stroke-dasharray:none;stroke-opacity:1"
             d="m 0,0 c 0,-18.147 -15.11,-32.859 -33.75,-32.859 -18.639,0 -33.75,14.712 -33.75,32.859 0,18.147 15.111,32.859 33.75,32.859 C -15.11,32.859 0,18.147 0,0 Z" /></g><g
           transform="translate(449.6836,118.459)"
           id="g210"><path
             id="path212"
             style="fill:#736248;fill-opacity:1;fill-rule:nonzero;stroke:#373535;stroke-width:5;stroke-linecap:butt;stroke-linejoin:miter;stroke-miterlimit:10;stroke-dasharray:none;stroke-opacity:1"
             d="m 0,0 v 52.68 4.984 4.075 20.129" /></g><g
           transform="translate(464.9185,180.1982)"
           id="g214"><path
             id="path216"
             style="fill:#736248;fill-opacity:1;fill-rule:nonzero;stroke:#373535;stroke-width:3;stroke-linecap:butt;stroke-linejoin:miter;stroke-miterlimit:10;stroke-dasharray:none;stroke-opacity:1"
             d="M 0,0 -15.235,-9.06" /></g><g
           transform="translate(431.1685,190.7158)"
           id="g218"><path
             id="path220"
             style="fill:#736248;fill-opacity:1;fill-rule:nonzero;stroke:#373535;stroke-width:3;stroke-linecap:butt;stroke-linejoin:miter;stroke-miterlimit:10;stroke-dasharray:none;stroke-opacity:1"
             d="M 0,0 18.515,-26.456" /></g></g></g></g></svg>