<?xml version="1.0" encoding="utf-8"?>
<!-- Generator: Adobe Illustrator 16.0.0, SVG Export Plug-In . SVG Version: 6.00 Build 0)  -->
<!DOCTYPE svg PUBLIC "-//W3C//DTD SVG 1.1//EN" "http://www.w3.org/Graphics/SVG/1.1/DTD/svg11.dtd">
<svg version="1.1" id="Layer_1" xmlns="http://www.w3.org/2000/svg" xmlns:xlink="http://www.w3.org/1999/xlink" x="0px" y="0px"
	 width="800px" height="350px" viewBox="0 0 800 350" enable-background="new 0 0 800 350" xml:space="preserve">
<g>
	<polygon fill="#FFFFFF" stroke="#000000" stroke-width="3" stroke-miterlimit="10" points="293.757,69.377 183.641,69.377 
		183.641,51.226 85.625,51.226 85.625,232.736 54.164,232.736 54.164,278.719 60.214,278.719 60.214,305.34 293.757,305.34 	"/>
	<polyline fill="#FFFFFF" stroke="#000000" stroke-width="3" stroke-miterlimit="10" points="183.641,69.377 144.917,69.377 
		144.917,226.686 144.917,233.945 85.625,232.736 	"/>
	
		<rect x="173.96" y="98.418" fill="#4D4949" stroke="#000000" stroke-width="4" stroke-miterlimit="10" width="95.595" height="185.141"/>
	
		<rect x="183.641" y="104.469" fill="#8CD2ED" stroke="#000000" stroke-width="4" stroke-miterlimit="10" width="85.914" height="179.09"/>
	
		<line fill="#FFFFFF" stroke="#000000" stroke-width="2" stroke-miterlimit="10" x1="240.513" y1="104.469" x2="240.513" y2="283.559"/>
	
		<line fill="#FFFFFF" stroke="#000000" stroke-width="3" stroke-miterlimit="10" x1="204.211" y1="283.559" x2="204.211" y2="104.469"/>
	
		<line fill="#FFFFFF" stroke="#000000" stroke-width="2" stroke-miterlimit="10" x1="173.96" y1="207.324" x2="269.555" y2="207.324"/>
	<line fill="#FFFFFF" stroke="#000000" stroke-miterlimit="10" x1="183.641" y1="247.257" x2="240.513" y2="247.257"/>
	<line fill="#FFFFFF" stroke="#000000" stroke-width="2" stroke-miterlimit="10" x1="204.211" y1="144.4" x2="269.555" y2="144.4"/>
	
		<rect x="98.935" y="67.377" fill="#8CD1EC" stroke="#000000" stroke-width="2" stroke-miterlimit="10" width="16.941" height="164.568"/>
	<line fill="#8CD1EC" stroke="#000000" stroke-width="2" stroke-miterlimit="10" x1="98.935" y1="144.4" x2="115.876" y2="144.4"/>
	
		<line fill="#8CD1EC" stroke="#000000" stroke-width="2" stroke-miterlimit="10" x1="98.935" y1="190.384" x2="115.876" y2="190.384"/>
	
		<rect x="85.625" y="254.517" fill="#414042" stroke="#000000" stroke-width="2" stroke-miterlimit="10" width="65.342" height="50.823"/>
	
		<rect x="91.674" y="260.567" fill="#8CD1EC" stroke="#000000" stroke-width="2" stroke-miterlimit="10" width="59.293" height="44.772"/>
	
		<line fill="#8CD1EC" stroke="#000000" stroke-width="2" stroke-miterlimit="10" x1="121.321" y1="260.567" x2="121.321" y2="305.34"/>
</g>
<g>
	
		<rect x="481.096" y="43.965" fill="#FFFFFF" stroke="#000000" stroke-width="2" stroke-miterlimit="10" width="143.009" height="260.262"/>
	
		<rect x="504.912" y="60.905" fill="#4D4949" stroke="#000000" stroke-width="2" stroke-miterlimit="10" width="68.369" height="243.321"/>
	
		<rect x="515.198" y="69.377" fill="#8CD1EC" stroke="#000000" stroke-width="2" stroke-miterlimit="10" width="58.083" height="234.85"/>
	
		<line fill="#FFFFFF" stroke="#000000" stroke-width="2" stroke-miterlimit="10" x1="538.242" y1="67.377" x2="538.242" y2="304.227"/>
	
		<line fill="#FFFFFF" stroke="#000000" stroke-width="2" stroke-miterlimit="10" x1="515.198" y1="133.51" x2="538.242" y2="133.51"/>
	
		<line fill="#FFFFFF" stroke="#000000" stroke-width="2" stroke-miterlimit="10" x1="539.097" y1="190.384" x2="573.281" y2="190.384"/>
	<path fill="#FFFFFF" stroke="#000000" stroke-width="2" stroke-miterlimit="10" d="M515.198,254.517"/>
	
		<line fill="#FFFFFF" stroke="#000000" stroke-width="2" stroke-miterlimit="10" x1="515.198" y1="260.567" x2="538.242" y2="260.567"/>
	
		<rect x="601.113" y="67.377" fill="#4DC1E5" stroke="#000000" stroke-width="2" stroke-miterlimit="10" width="7.26" height="236.85"/>
	<polygon fill="#FFFFFF" stroke="#000000" stroke-width="2" stroke-miterlimit="10" points="475.799,157.517 390.344,221.837 
		395.857,228.27 411.479,218.162 413.315,306.374 543.795,306.374 543.795,221.837 553.902,228.27 562.172,221.837 	"/>
	<polyline fill="#FFFFFF" stroke="#000000" stroke-width="2" stroke-miterlimit="10" points="411.479,218.162 476.258,169.461 
		543.795,221.837 	"/>
	<circle fill="#535A5B" stroke="#000000" stroke-width="2" stroke-miterlimit="10" cx="476.258" cy="200.703" r="13.783"/>
	<path fill="#8CD1EC" stroke="#000000" stroke-width="2" stroke-miterlimit="10" d="M462.258,186.92"/>
	
		<ellipse fill="#8CD1EC" stroke="#000000" stroke-width="2" stroke-miterlimit="10" cx="478.435" cy="201.394" rx="12.175" ry="11.716"/>
	
		<rect x="429.855" y="238.377" fill="#4D4949" stroke="#000000" stroke-width="2" stroke-miterlimit="10" width="65.24" height="67.997"/>
	
		<rect x="434.449" y="242.972" fill="#8CD0EA" stroke="#000000" stroke-width="2" stroke-miterlimit="10" width="60.646" height="63.402"/>
	
		<line fill="#8CD0EA" stroke="#000000" stroke-width="2" stroke-miterlimit="10" x1="464.771" y1="242.972" x2="464.771" y2="306.374"/>
</g>
<g>
	
		<ellipse fill="#73C382" stroke="#000000" stroke-width="2" stroke-miterlimit="10" cx="701.246" cy="214.487" rx="43.563" ry="42.412"/>
	<polyline fill="#6D593B" stroke="#000000" stroke-width="5" stroke-miterlimit="10" points="701.246,306.374 701.246,238.378 
		701.246,231.944 701.246,226.685 701.246,200.703 	"/>
	
		<line fill="#6D593B" stroke="#000000" stroke-width="3" stroke-miterlimit="10" x1="720.91" y1="226.685" x2="701.246" y2="238.378"/>
	
		<line fill="#6D593B" stroke="#000000" stroke-width="3" stroke-miterlimit="10" x1="677.348" y1="213.109" x2="701.246" y2="247.257"/>
</g>
<g>
	
		<ellipse fill="#73C382" stroke="#000000" stroke-width="2" stroke-miterlimit="10" cx="348.684" cy="235.352" rx="33.75" ry="32.859"/>
	<polyline fill="#6D593B" stroke="#000000" stroke-width="5" stroke-miterlimit="10" points="348.684,306.541 348.684,253.861 
		348.684,248.877 348.684,244.802 348.684,224.673 	"/>
	
		<line fill="#6D593B" stroke="#000000" stroke-width="3" stroke-miterlimit="10" x1="363.918" y1="244.802" x2="348.684" y2="253.861"/>
	
		<line fill="#6D593B" stroke="#000000" stroke-width="3" stroke-miterlimit="10" x1="330.168" y1="234.284" x2="348.684" y2="260.74"/>
</g>
</svg>
