<?xml version="1.0" encoding="utf-8"?>
<!-- Generator: Adobe Illustrator 16.0.0, SVG Export Plug-In . SVG Version: 6.00 Build 0)  -->
<!DOCTYPE svg PUBLIC "-//W3C//DTD SVG 1.1//EN" "http://www.w3.org/Graphics/SVG/1.1/DTD/svg11.dtd">
<svg version="1.1" id="Layer_1" xmlns="http://www.w3.org/2000/svg" xmlns:xlink="http://www.w3.org/1999/xlink" x="0px" y="0px"
	 width="249px" height="263px" viewBox="0 0 249 263" enable-background="new 0 0 249 263" xml:space="preserve">
<g>
	<polygon fill="#FFFFFF" stroke="#000000" stroke-width="3" stroke-miterlimit="10" points="244.953,23.285 134.838,23.285 
		134.838,5.133 36.822,5.133 36.822,186.645 5.36,186.645 5.36,232.627 11.411,232.627 11.411,259.248 244.953,259.248 	"/>
	<polyline fill="#FFFFFF" stroke="#000000" stroke-width="3" stroke-miterlimit="10" points="134.838,23.285 96.114,23.285 
		96.114,180.594 96.114,187.854 36.822,186.645 	"/>
	
		<rect x="125.156" y="52.326" fill="#4D4949" stroke="#000000" stroke-width="4" stroke-miterlimit="10" width="95.596" height="185.141"/>
	
		<rect x="134.838" y="58.376" fill="#8CD2ED" stroke="#000000" stroke-width="4" stroke-miterlimit="10" width="85.914" height="179.09"/>
	
		<line fill="#FFFFFF" stroke="#000000" stroke-width="2" stroke-miterlimit="10" x1="191.709" y1="58.376" x2="191.709" y2="237.467"/>
	
		<line fill="#FFFFFF" stroke="#000000" stroke-width="3" stroke-miterlimit="10" x1="155.408" y1="237.467" x2="155.408" y2="58.376"/>
	
		<line fill="#FFFFFF" stroke="#000000" stroke-width="2" stroke-miterlimit="10" x1="125.156" y1="161.232" x2="220.752" y2="161.232"/>
	<line fill="#FFFFFF" stroke="#000000" stroke-miterlimit="10" x1="134.838" y1="201.164" x2="191.709" y2="201.164"/>
	
		<line fill="#FFFFFF" stroke="#000000" stroke-width="2" stroke-miterlimit="10" x1="155.408" y1="98.308" x2="220.752" y2="98.308"/>
	
		<rect x="50.132" y="21.285" fill="#8CD1EC" stroke="#000000" stroke-width="2" stroke-miterlimit="10" width="16.941" height="164.569"/>
	<line fill="#8CD1EC" stroke="#000000" stroke-width="2" stroke-miterlimit="10" x1="50.132" y1="98.308" x2="67.073" y2="98.308"/>
	
		<line fill="#8CD1EC" stroke="#000000" stroke-width="2" stroke-miterlimit="10" x1="50.132" y1="144.291" x2="67.073" y2="144.291"/>
	
		<rect x="36.822" y="208.424" fill="#414042" stroke="#000000" stroke-width="2" stroke-miterlimit="10" width="65.342" height="50.824"/>
	
		<rect x="42.871" y="214.475" fill="#8CD1EC" stroke="#000000" stroke-width="2" stroke-miterlimit="10" width="59.293" height="44.773"/>
	
		<line fill="#8CD1EC" stroke="#000000" stroke-width="2" stroke-miterlimit="10" x1="72.518" y1="214.475" x2="72.518" y2="259.248"/>
</g>
</svg>
