<?xml version="1.0" encoding="utf-8"?>
<!-- Generator: Adobe Illustrator 16.0.0, SVG Export Plug-In . SVG Version: 6.00 Build 0)  -->
<!DOCTYPE svg PUBLIC "-//W3C//DTD SVG 1.1//EN" "http://www.w3.org/Graphics/SVG/1.1/DTD/svg11.dtd">
<svg version="1.1" id="Layer_1" xmlns="http://www.w3.org/2000/svg" xmlns:xlink="http://www.w3.org/1999/xlink" x="0px" y="0px"
	 width="246px" height="277px" viewBox="0 0 246 277" enable-background="new 0 0 246 277" xml:space="preserve">
<rect x="96.096" y="9.965" fill="#FFFFFF" stroke="#000000" stroke-width="2" stroke-miterlimit="10" width="143.009" height="260.262"/>
<rect x="119.912" y="26.905" fill="#4D4949" stroke="#000000" stroke-width="2" stroke-miterlimit="10" width="68.369" height="243.321"/>
<rect x="130.198" y="35.377" fill="#8CD1EC" stroke="#000000" stroke-width="2" stroke-miterlimit="10" width="58.083" height="234.85"/>
<line fill="#FFFFFF" stroke="#000000" stroke-width="2" stroke-miterlimit="10" x1="153.242" y1="33.377" x2="153.242" y2="270.227"/>
<line fill="#FFFFFF" stroke="#000000" stroke-width="2" stroke-miterlimit="10" x1="130.198" y1="99.51" x2="153.242" y2="99.51"/>
<line fill="#FFFFFF" stroke="#000000" stroke-width="2" stroke-miterlimit="10" x1="154.097" y1="156.384" x2="188.281" y2="156.384"/>
<path fill="#FFFFFF" stroke="#000000" stroke-width="2" stroke-miterlimit="10" d="M130.198,220.517"/>
<line fill="#FFFFFF" stroke="#000000" stroke-width="2" stroke-miterlimit="10" x1="130.198" y1="226.567" x2="153.242" y2="226.567"/>
<rect x="216.113" y="33.377" fill="#4DC1E5" stroke="#000000" stroke-width="2" stroke-miterlimit="10" width="7.26" height="236.85"/>
<polyline fill="#FFFFFF" stroke="#000000" stroke-width="2" stroke-miterlimit="10" points="10.857,194.27 26.479,184.162 
	28.315,272.374 158.795,272.374 158.795,187.837 168.902,194.27 177.172,187.837 90.799,123.517 5.344,187.837 "/>
<polyline fill="#FFFFFF" stroke="#000000" stroke-width="2" stroke-miterlimit="10" points="26.479,184.162 91.258,135.461 
	158.795,187.837 "/>
<circle fill="#535A5B" stroke="#000000" stroke-width="2" stroke-miterlimit="10" cx="91.258" cy="166.703" r="13.783"/>
<path fill="#8CD1EC" stroke="#000000" stroke-width="2" stroke-miterlimit="10" d="M77.258,152.92"/>
<ellipse fill="#8CD1EC" stroke="#000000" stroke-width="2" stroke-miterlimit="10" cx="93.435" cy="167.394" rx="12.175" ry="11.716"/>
<rect x="44.855" y="204.377" fill="#4D4949" stroke="#000000" stroke-width="2" stroke-miterlimit="10" width="65.24" height="67.997"/>
<rect x="49.449" y="208.972" fill="#8CD0EA" stroke="#000000" stroke-width="2" stroke-miterlimit="10" width="60.646" height="63.402"/>
<line fill="#8CD0EA" stroke="#000000" stroke-width="2" stroke-miterlimit="10" x1="79.771" y1="208.972" x2="79.771" y2="272.374"/>
<polyline fill="none" points="6,-1 136,-1 136,210 6,210 "/>
</svg>
